<?xml version="1.0" standalone="no"?><!-- Generator: Gravit.io --><svg xmlns="http://www.w3.org/2000/svg" xmlns:xlink="http://www.w3.org/1999/xlink" style="isolation:isolate" viewBox="0 0 450 450" width="450" height="450"><defs><clipPath id="_clipPath_yTOo89mFbaYeCc4JFHNT7czdYb3DlLlM"><rect width="450" height="450"/></clipPath></defs><g clip-path="url(#_clipPath_yTOo89mFbaYeCc4JFHNT7czdYb3DlLlM)"><path d=" M 380.596 55.768 C 378.783 55.724 376.97 55.865 375.185 56.188 L 68.118 111.467 C 53.556 114.081 43.787 128.143 46.412 142.699 L 46.547 143.452 C 37.891 147.476 32.577 156.944 34.336 166.74 C 35.863 175.212 42.276 181.603 50.13 183.674 L 50.13 205.057 C 50.034 205.638 50.034 206.23 50.13 206.811 L 50.13 367.343 C 50.13 382.136 62.233 394.24 77.026 394.24 L 389.031 394.24 C 403.824 394.24 415.928 382.136 415.928 367.343 L 415.928 206.865 C 416.024 206.284 416.024 205.692 415.928 205.111 L 415.928 157.546 L 115.763 157.546 L 411.178 104.371 L 406.407 77.894 C 404.12 65.161 393.071 56.086 380.596 55.768 L 380.596 55.768 Z  M 383.528 66.936 C 389.854 68.345 394.709 73.425 395.831 79.809 L 398.682 95.694 L 358.519 102.924 L 383.528 66.936 Z  M 369.595 68.125 L 343.548 105.614 L 310.874 111.493 L 336.926 74.01 L 369.595 68.125 Z  M 321.955 76.71 L 295.903 114.183 L 263.223 120.068 L 289.27 82.59 L 321.955 76.71 Z  M 274.294 85.28 L 248.258 122.774 L 215.589 128.654 L 241.625 91.165 L 274.299 85.28 L 274.294 85.28 Z  M 226.643 93.865 L 200.607 131.343 L 167.917 137.228 L 193.974 99.75 L 226.638 93.865 L 226.643 93.865 Z  M 178.993 102.44 L 152.946 139.929 L 120.282 145.798 L 146.329 108.325 L 178.993 102.44 Z  M 131.358 111.015 L 105.311 148.488 L 74.977 153.953 C 74.708 153.383 74.385 152.845 74.073 152.301 L 98.679 116.894 L 131.358 111.015 Z  M 83.697 119.595 L 66.375 144.528 C 63.56 142.841 60.394 141.823 57.123 141.553 L 56.988 140.8 L 56.988 140.79 C 56.206 136.574 57.144 132.221 59.591 128.701 C 62.039 125.182 65.793 122.788 70.017 122.053 L 83.697 119.595 Z  M 55.805 152.167 C 60.834 152.275 65.181 155.852 66.112 161.021 C 66.112 161.036 66.112 161.05 66.112 161.065 C 66.192 161.533 66.192 161.984 66.219 162.442 C 66.184 162.823 66.189 163.207 66.235 163.587 C 65.972 168.549 62.314 172.669 57.419 173.518 C 56.929 173.604 56.45 173.609 55.961 173.631 C 55.603 173.598 55.242 173.602 54.885 173.642 L 54.88 173.642 C 49.912 173.389 45.78 169.731 44.928 164.83 C 44.397 162.02 45.018 159.114 46.649 156.765 C 48.28 154.415 50.786 152.819 53.605 152.334 C 54.347 152.205 55.084 152.151 55.805 152.167 Z  M 76.279 168.305 L 107.076 168.305 L 139.352 200.582 L 106.15 200.582 L 75.671 170.102 C 75.886 169.51 76.117 168.918 76.279 168.305 Z  M 122.289 168.305 L 155.49 168.305 L 187.767 200.582 L 154.565 200.582 L 122.289 168.305 Z  M 170.703 168.305 L 203.905 168.305 L 236.181 200.582 L 202.98 200.582 L 170.703 168.305 Z  M 219.118 168.305 L 252.319 168.305 L 284.596 200.582 L 251.394 200.582 L 219.118 168.305 Z  M 267.532 168.305 L 300.734 168.305 L 333.01 200.582 L 299.809 200.582 L 267.532 168.305 Z  M 315.947 168.305 L 349.148 168.305 L 381.425 200.582 L 348.223 200.582 L 315.947 168.305 Z  M 364.361 168.305 L 405.169 168.305 L 405.169 200.582 L 396.638 200.582 L 364.361 168.305 Z  M 69.474 179.118 L 90.938 200.582 L 60.888 200.582 L 60.888 183.658 C 64.06 182.823 66.998 181.269 69.474 179.118 Z  M 60.888 211.34 L 405.169 211.34 L 405.169 367.343 C 405.169 376.315 398.004 383.481 389.031 383.481 L 77.026 383.481 C 68.054 383.481 60.888 376.315 60.888 367.343 L 60.888 211.34 Z  M 93.165 345.825 C 90.194 345.825 87.785 348.233 87.785 351.204 C 87.785 354.175 90.194 356.584 93.165 356.584 C 96.136 356.584 98.544 354.175 98.544 351.204 C 98.544 348.233 96.136 345.825 93.165 345.825 Z  M 114.682 345.825 C 111.711 345.825 109.303 348.233 109.303 351.204 C 109.303 354.175 111.711 356.584 114.682 356.584 C 117.653 356.584 120.062 354.175 120.062 351.204 C 120.062 348.233 117.653 345.825 114.682 345.825 Z  M 136.2 345.825 C 133.229 345.825 130.82 348.233 130.82 351.204 C 130.82 354.175 133.229 356.584 136.2 356.584 C 139.171 356.584 141.579 354.175 141.579 351.204 C 141.579 348.233 139.171 345.825 136.2 345.825 Z  M 157.717 345.825 C 154.746 345.825 152.338 348.233 152.338 351.204 C 152.338 354.175 154.746 356.584 157.717 356.584 C 160.688 356.584 163.097 354.175 163.097 351.204 C 163.097 348.233 160.688 345.825 157.717 345.825 Z  M 179.235 345.825 C 176.264 345.825 173.855 348.233 173.855 351.204 C 173.855 354.175 176.264 356.584 179.235 356.584 C 182.206 356.584 184.614 354.175 184.614 351.204 C 184.614 348.233 182.206 345.825 179.235 345.825 Z  M 200.752 345.825 C 197.781 345.825 195.373 348.233 195.373 351.204 C 195.373 354.175 197.781 356.584 200.752 356.584 C 203.723 356.584 206.132 354.175 206.132 351.204 C 206.132 348.233 203.723 345.825 200.752 345.825 Z  M 222.27 345.825 C 219.299 345.825 216.891 348.233 216.891 351.204 C 216.891 354.175 219.299 356.584 222.27 356.584 C 225.241 356.584 227.649 354.175 227.649 351.204 C 227.649 348.233 225.241 345.825 222.27 345.825 Z  M 243.788 345.825 C 240.817 345.825 238.408 348.233 238.408 351.204 C 238.408 354.175 240.817 356.584 243.788 356.584 C 246.759 356.584 249.167 354.175 249.167 351.204 C 249.167 348.233 246.759 345.825 243.788 345.825 Z  M 265.305 345.825 C 262.334 345.825 259.926 348.233 259.926 351.204 C 259.926 354.175 262.334 356.584 265.305 356.584 C 268.276 356.584 270.685 354.175 270.685 351.204 C 270.685 348.233 268.276 345.825 265.305 345.825 Z  M 286.823 345.825 C 283.852 345.825 281.443 348.233 281.443 351.204 C 281.443 354.175 283.852 356.584 286.823 356.584 C 289.794 356.584 292.202 354.175 292.202 351.204 C 292.202 348.233 289.794 345.825 286.823 345.825 Z  M 308.34 345.825 C 305.369 345.825 302.961 348.233 302.961 351.204 C 302.961 354.175 305.369 356.584 308.34 356.584 C 311.311 356.584 313.72 354.175 313.72 351.204 C 313.72 348.233 311.311 345.825 308.34 345.825 Z  M 329.858 345.825 C 326.887 345.825 324.478 348.233 324.478 351.204 C 324.478 354.175 326.887 356.584 329.858 356.584 C 332.829 356.584 335.237 354.175 335.237 351.204 C 335.237 348.233 332.829 345.825 329.858 345.825 Z  M 351.375 345.825 C 348.404 345.825 345.996 348.233 345.996 351.204 C 345.996 354.175 348.404 356.584 351.375 356.584 C 354.346 356.584 356.755 354.175 356.755 351.204 C 356.755 348.233 354.346 345.825 351.375 345.825 Z  M 372.893 345.825 C 369.922 345.825 367.514 348.233 367.514 351.204 C 367.514 354.175 369.922 356.584 372.893 356.584 C 375.864 356.584 378.272 354.175 378.272 351.204 C 378.272 348.233 375.864 345.825 372.893 345.825 Z " fill="rgb(0,0,0)"/></g></svg>